<mxfile host="app.diagrams.net" modified="2021-01-27T07:55:53.678Z" agent="5.0 (Macintosh; Intel Mac OS X 10_15_7) AppleWebKit/537.36 (KHTML, like Gecko) Chrome/87.0.4280.141 Safari/537.36" etag="xKyWFV8_n3STxTpm3rZX" version="14.2.7" type="github">
  <diagram id="xDiMFhPvw6MK4APp4FO1" name="Page-1">
    <mxGraphModel dx="1042" dy="571" grid="1" gridSize="10" guides="1" tooltips="1" connect="1" arrows="1" fold="1" page="1" pageScale="1" pageWidth="827" pageHeight="1169" math="0" shadow="0">
      <root>
        <mxCell id="0" />
        <mxCell id="1" parent="0" />
        <mxCell id="uX3aSrafVGmmTzADLKMs-21" style="edgeStyle=orthogonalEdgeStyle;curved=1;rounded=0;orthogonalLoop=1;jettySize=auto;html=1;exitX=0;exitY=0.5;exitDx=0;exitDy=0;entryX=1;entryY=0.75;entryDx=0;entryDy=0;" edge="1" parent="1" source="uX3aSrafVGmmTzADLKMs-1" target="uX3aSrafVGmmTzADLKMs-2">
          <mxGeometry relative="1" as="geometry" />
        </mxCell>
        <mxCell id="uX3aSrafVGmmTzADLKMs-1" value="接入层" style="rounded=1;whiteSpace=wrap;html=1;" vertex="1" parent="1">
          <mxGeometry x="295" y="150" width="240" height="30" as="geometry" />
        </mxCell>
        <mxCell id="uX3aSrafVGmmTzADLKMs-2" value="kafka" style="rounded=1;whiteSpace=wrap;html=1;rotation=-90;" vertex="1" parent="1">
          <mxGeometry x="70" y="305" width="240" height="30" as="geometry" />
        </mxCell>
        <mxCell id="uX3aSrafVGmmTzADLKMs-22" style="edgeStyle=orthogonalEdgeStyle;curved=1;rounded=0;orthogonalLoop=1;jettySize=auto;html=1;exitX=0;exitY=0.25;exitDx=0;exitDy=0;entryX=0.904;entryY=1.033;entryDx=0;entryDy=0;entryPerimeter=0;" edge="1" parent="1" source="uX3aSrafVGmmTzADLKMs-3" target="uX3aSrafVGmmTzADLKMs-2">
          <mxGeometry relative="1" as="geometry" />
        </mxCell>
        <mxCell id="uX3aSrafVGmmTzADLKMs-3" value="预处理" style="rounded=1;whiteSpace=wrap;html=1;" vertex="1" parent="1">
          <mxGeometry x="235" y="200" width="95" height="30" as="geometry" />
        </mxCell>
        <mxCell id="uX3aSrafVGmmTzADLKMs-12" value="视频流调度" style="rounded=1;whiteSpace=wrap;html=1;" vertex="1" parent="1">
          <mxGeometry x="235" y="270" width="80" height="30" as="geometry" />
        </mxCell>
        <mxCell id="uX3aSrafVGmmTzADLKMs-18" value="人脸布控、结构化" style="rounded=1;whiteSpace=wrap;html=1;" vertex="1" parent="1">
          <mxGeometry x="340" y="270" width="100" height="30" as="geometry" />
        </mxCell>
        <mxCell id="uX3aSrafVGmmTzADLKMs-35" style="edgeStyle=orthogonalEdgeStyle;curved=1;rounded=0;orthogonalLoop=1;jettySize=auto;html=1;exitX=0.5;exitY=1;exitDx=0;exitDy=0;entryX=0.5;entryY=0;entryDx=0;entryDy=0;" edge="1" parent="1" source="uX3aSrafVGmmTzADLKMs-20" target="uX3aSrafVGmmTzADLKMs-1">
          <mxGeometry relative="1" as="geometry" />
        </mxCell>
        <mxCell id="uX3aSrafVGmmTzADLKMs-20" value="抓拍图上传" style="rounded=1;whiteSpace=wrap;html=1;" vertex="1" parent="1">
          <mxGeometry x="330" y="90" width="80" height="30" as="geometry" />
        </mxCell>
        <mxCell id="uX3aSrafVGmmTzADLKMs-23" value="车辆布控、结构化" style="rounded=1;whiteSpace=wrap;html=1;" vertex="1" parent="1">
          <mxGeometry x="341" y="310" width="100" height="30" as="geometry" />
        </mxCell>
        <mxCell id="uX3aSrafVGmmTzADLKMs-24" value="人群聚集任务" style="rounded=1;whiteSpace=wrap;html=1;" vertex="1" parent="1">
          <mxGeometry x="341" y="350" width="100" height="30" as="geometry" />
        </mxCell>
        <mxCell id="uX3aSrafVGmmTzADLKMs-25" value="jobmanager" style="rounded=1;whiteSpace=wrap;html=1;" vertex="1" parent="1">
          <mxGeometry x="474" y="270" width="80" height="30" as="geometry" />
        </mxCell>
        <mxCell id="uX3aSrafVGmmTzADLKMs-27" value="任务管理" style="rounded=1;whiteSpace=wrap;html=1;" vertex="1" parent="1">
          <mxGeometry x="380" y="200" width="80" height="30" as="geometry" />
        </mxCell>
        <mxCell id="uX3aSrafVGmmTzADLKMs-28" value="设备管理" style="rounded=1;whiteSpace=wrap;html=1;" vertex="1" parent="1">
          <mxGeometry x="515" y="200" width="80" height="30" as="geometry" />
        </mxCell>
        <mxCell id="uX3aSrafVGmmTzADLKMs-29" value="任务执行" style="rounded=1;whiteSpace=wrap;html=1;" vertex="1" parent="1">
          <mxGeometry x="235" y="310" width="80" height="25" as="geometry" />
        </mxCell>
        <mxCell id="uX3aSrafVGmmTzADLKMs-31" value="人流统计任务" style="rounded=1;whiteSpace=wrap;html=1;" vertex="1" parent="1">
          <mxGeometry x="341" y="390" width="100" height="30" as="geometry" />
        </mxCell>
        <mxCell id="uX3aSrafVGmmTzADLKMs-32" value="gaia建档引擎" style="rounded=1;whiteSpace=wrap;html=1;" vertex="1" parent="1">
          <mxGeometry x="474" y="310" width="80" height="30" as="geometry" />
        </mxCell>
        <mxCell id="uX3aSrafVGmmTzADLKMs-33" value="身份绑定上报" style="rounded=1;whiteSpace=wrap;html=1;" vertex="1" parent="1">
          <mxGeometry x="474" y="350" width="80" height="30" as="geometry" />
        </mxCell>
        <mxCell id="uX3aSrafVGmmTzADLKMs-37" style="edgeStyle=orthogonalEdgeStyle;curved=1;rounded=0;orthogonalLoop=1;jettySize=auto;html=1;exitX=0.5;exitY=1;exitDx=0;exitDy=0;entryX=0.5;entryY=0;entryDx=0;entryDy=0;" edge="1" parent="1" source="uX3aSrafVGmmTzADLKMs-36" target="uX3aSrafVGmmTzADLKMs-1">
          <mxGeometry relative="1" as="geometry" />
        </mxCell>
        <mxCell id="uX3aSrafVGmmTzADLKMs-36" value="应用接口交互" style="rounded=1;whiteSpace=wrap;html=1;" vertex="1" parent="1">
          <mxGeometry x="435" y="90" width="80" height="30" as="geometry" />
        </mxCell>
        <mxCell id="uX3aSrafVGmmTzADLKMs-38" value="" style="group" vertex="1" connectable="0" parent="1">
          <mxGeometry x="220" y="460" width="405" height="40" as="geometry" />
        </mxCell>
        <mxCell id="uX3aSrafVGmmTzADLKMs-13" value="人脸人体跟踪" style="rounded=1;whiteSpace=wrap;html=1;" vertex="1" parent="uX3aSrafVGmmTzADLKMs-38">
          <mxGeometry width="52.25806451612903" height="40" as="geometry" />
        </mxCell>
        <mxCell id="uX3aSrafVGmmTzADLKMs-14" value="特征" style="rounded=1;whiteSpace=wrap;html=1;" vertex="1" parent="uX3aSrafVGmmTzADLKMs-38">
          <mxGeometry x="126.29032258064517" width="60.96774193548387" height="40" as="geometry" />
        </mxCell>
        <mxCell id="uX3aSrafVGmmTzADLKMs-15" value="属性" style="rounded=1;whiteSpace=wrap;html=1;" vertex="1" parent="uX3aSrafVGmmTzADLKMs-38">
          <mxGeometry x="200.32258064516128" width="60.96774193548387" height="40" as="geometry" />
        </mxCell>
        <mxCell id="uX3aSrafVGmmTzADLKMs-16" value="聚类" style="rounded=1;whiteSpace=wrap;html=1;" vertex="1" parent="uX3aSrafVGmmTzADLKMs-38">
          <mxGeometry x="277.83870967741933" width="60.96774193548387" height="40" as="geometry" />
        </mxCell>
        <mxCell id="uX3aSrafVGmmTzADLKMs-17" value="1vN检索" style="rounded=1;whiteSpace=wrap;html=1;" vertex="1" parent="uX3aSrafVGmmTzADLKMs-38">
          <mxGeometry x="352.741935483871" width="52.25806451612903" height="40" as="geometry" />
        </mxCell>
        <mxCell id="uX3aSrafVGmmTzADLKMs-30" value="人流统计" style="rounded=1;whiteSpace=wrap;html=1;" vertex="1" parent="uX3aSrafVGmmTzADLKMs-38">
          <mxGeometry x="65.3225806451613" width="52.25806451612903" height="40" as="geometry" />
        </mxCell>
        <mxCell id="uX3aSrafVGmmTzADLKMs-39" value="档案检索、底库管理" style="rounded=1;whiteSpace=wrap;html=1;" vertex="1" parent="1">
          <mxGeometry x="474" y="390" width="80" height="30" as="geometry" />
        </mxCell>
      </root>
    </mxGraphModel>
  </diagram>
</mxfile>
